<?xml version="1.0" standalone="no"?>
<!DOCTYPE svg PUBLIC "-//W3C//DTD SVG 20010904//EN" "http://www.w3.org/TR/2001/REC-SVG-20010904/DTD/svg10.dtd">
<svg version="1.0" xmlns="http://www.w3.org/2000/svg" width="50" height="50" viewBox="0 0 500.000000 500.000000" preserveAspectRatio="xMidYMid meet">

<g transform="translate(0.000000,500.000000) scale(0.100000,-0.100000)"
fill="#FF0067" stroke="none">
<path d="M2415 4098 c-27 -5 -88 -27 -134 -49 -115 -56 -201 -143 -262 -264
-43 -85 -49 -92 -103 -121 -32 -17 -62 -37 -67 -45 -24 -37 5 -89 49 -89 23 0
133 50 160 72 8 7 34 55 58 106 73 156 193 250 354 275 245 38 481 -137 522
-387 29 -178 -71 -379 -231 -464 -69 -37 -158 -62 -222 -62 -30 0 -55 -6 -69
-18 -21 -17 -22 -24 -21 -185 l2 -168 -33 -13 c-18 -8 -494 -181 -1058 -386
-563 -204 -1047 -383 -1075 -398 -77 -41 -186 -155 -223 -233 -44 -92 -55
-155 -50 -273 8 -151 49 -241 160 -354 61 -62 183 -127 267 -142 74 -14 4008
-14 4082 0 94 17 196 75 275 155 117 118 160 235 152 406 -6 114 -30 188 -94
281 -50 74 -102 120 -184 165 -30 17 -515 200 -1077 408 l-1023 378 0 127 0
128 48 6 c218 31 410 193 475 401 29 93 31 254 3 335 -36 106 -77 174 -151
247 -142 142 -329 199 -530 161z m1140 -1899 c566 -210 1051 -395 1077 -411
66 -42 125 -109 161 -186 30 -62 32 -75 32 -172 0 -97 -2 -110 -31 -170 -57
-119 -142 -193 -262 -230 -63 -20 -100 -20 -2052 -20 -1952 0 -1989 0 -2052
20 -120 37 -207 113 -262 229 -29 61 -31 74 -31 172 0 101 1 108 38 181 44 90
121 165 201 199 130 53 2104 767 2126 768 13 0 488 -171 1055 -380z"/>
</g>
</svg>
